<?xml version="1.0" encoding="utf-8"?>
<!-- Generator: Adobe Illustrator 24.1.0, SVG Export Plug-In . SVG Version: 6.00 Build 0)  -->
<svg version="1.1" id="Layer_1" xmlns="http://www.w3.org/2000/svg" xmlns:xlink="http://www.w3.org/1999/xlink" x="0px" y="0px"
	 viewBox="0 0 24 30" style="enable-background:new 0 0 24 30;" xml:space="preserve">
<style type="text/css">
	.st0{fill:#BE1F24;}
</style>
<path class="st0" d="M10,14.2V20h10V10h-5.8l-2-2H21c0.6,0,1,0.4,1,1v12c0,0.6-0.4,1-1,1H9c-0.6,0-1-0.4-1-1v-8.8L10,14.2z
	 M15.7,15.7c0.4-0.4,0.4-1,0-1.4L5.4,4H11c0.6,0,1-0.4,1-1s-0.4-1-1-1H3C2.4,2,2,2.4,2,3v8c0,0.6,0.4,1,1,1s1-0.4,1-1V5.4l10.3,10.3
	C14.7,16.1,15.3,16.1,15.7,15.7z"/>
</svg>
