<?xml version="1.0" encoding="utf-8"?>
<!-- Generator: Adobe Illustrator 24.1.2, SVG Export Plug-In . SVG Version: 6.00 Build 0)  -->
<svg version="1.1" id="Layer_1" xmlns="http://www.w3.org/2000/svg" xmlns:xlink="http://www.w3.org/1999/xlink" x="0px" y="0px"
	 viewBox="0 0 100 100" style="enable-background:new 0 0 100 100;" xml:space="preserve">
<style type="text/css">
	.st0{fill:#BE1F24;}
</style>
<g>
	<g>
		<path class="st0" d="M50,100C22.4,100,0,77.6,0,50S22.4,0,50,0s50,22.4,50,50S77.6,100,50,100z M50,2.8C24,2.8,2.8,24,2.8,50
			S24,97.2,50,97.2S97.2,76,97.2,50S76,2.8,50,2.8z"/>
	</g>
	<g>
		<path class="st0" d="M69.1,70.4c-0.4,0-0.7-0.1-1-0.4L30,31.9c-0.5-0.5-0.5-1.4,0-2c0.5-0.5,1.4-0.5,2,0l38,38.2
			c0.5,0.5,0.5,1.4,0,2C69.8,70.3,69.4,70.4,69.1,70.4z"/>
	</g>
	<g>
		<path class="st0" d="M30.9,70.4c-0.4,0-0.7-0.1-1-0.4c-0.5-0.5-0.5-1.4,0-2l38.2-38c0.5-0.5,1.4-0.5,2,0c0.5,0.5,0.5,1.4,0,2
			L31.9,70C31.6,70.3,31.3,70.4,30.9,70.4z"/>
	</g>
</g>
</svg>
