<?xml version="1.0" encoding="utf-8"?>
<!-- Generator: Adobe Illustrator 24.1.2, SVG Export Plug-In . SVG Version: 6.00 Build 0)  -->
<svg version="1.1" id="Layer_1" xmlns="http://www.w3.org/2000/svg" xmlns:xlink="http://www.w3.org/1999/xlink" x="0px" y="0px"
	 viewBox="0 0 100 100" style="enable-background:new 0 0 100 100;" xml:space="preserve">
<g>
	<g>
		<path d="M100,50c0,27.6-22.4,50-50,50S0,77.6,0,50C0,22.4,22.4,0,50,0C77.6,0,100,22.4,100,50z M2.8,50C2.8,76,24,97.2,50,97.2
			S97.2,76,97.2,50S76,2.8,50,2.8S2.8,24,2.8,50z"/>
	</g>
	<g>
		<g>
			<path d="M67.2,53.6c0,0.3-0.1,0.5-0.2,0.7L51.2,79.5c-0.3,0.4-0.7,0.6-1.2,0.6s-0.9-0.2-1.2-0.6L33,54.4c-0.3-0.4-0.3-1,0-1.4
				c0.2-0.4,0.7-0.7,1.2-0.7h31.5c0.5,0,1,0.3,1.2,0.7C67.1,53.2,67.2,53.4,67.2,53.6z M50,76.2L63.3,55H36.7L50,76.2z"/>
		</g>
		<g>
			<path d="M67.2,28.5c0,0.3-0.1,0.5-0.2,0.7L51.2,54.4C50.9,54.8,50.5,55,50,55s-0.9-0.2-1.2-0.6L33,29.3c-0.3-0.4-0.3-1,0-1.4
				c0.2-0.4,0.7-0.7,1.2-0.7h31.5c0.5,0,1,0.3,1.2,0.7C67.1,28,67.2,28.3,67.2,28.5z M50,51l13.3-21.1H36.7L50,51z"/>
		</g>
	</g>
</g>
</svg>
