<svg height='100px' width='100px'  fill="#000000" xmlns="http://www.w3.org/2000/svg" xmlns:xlink="http://www.w3.org/1999/xlink" version="1.1" x="0px" y="0px" viewBox="0 0 100 100" style="enable-background:new 0 0 100 100;" xml:space="preserve"><g><g><path d="M50,100C22.4,100,0,77.6,0,50C0,22.4,22.4,0,50,0s50,22.4,50,50C100,77.6,77.6,100,50,100z M50,2.8    C24,2.8,2.8,24,2.8,50C2.8,76,24,97.2,50,97.2S97.2,76,97.2,50C97.2,24,76,2.8,50,2.8z"></path></g><g><g><path d="M37.4,70.6c-0.8,0-1.4-0.6-1.4-1.4V30.8c0-0.8,0.6-1.4,1.4-1.4s1.4,0.6,1.4,1.4v38.4     C38.8,69.9,38.2,70.6,37.4,70.6z"></path></g><g><path d="M62.6,70.6c-0.8,0-1.4-0.6-1.4-1.4V30.8c0-0.8,0.6-1.4,1.4-1.4s1.4,0.6,1.4,1.4v38.4     C63.9,69.9,63.3,70.6,62.6,70.6z"></path></g></g></g></svg>