<svg height='100px' width='100px'  fill="#000000" xmlns="http://www.w3.org/2000/svg" xmlns:xlink="http://www.w3.org/1999/xlink" version="1.1" x="0px" y="0px" viewBox="0 0 100 100" style="enable-background:new 0 0 100 100;" xml:space="preserve"><g><g><path d="M50,100C22.4,100,0,77.6,0,50C0,22.4,22.4,0,50,0s50,22.4,50,50C100,77.6,77.6,100,50,100z M50,2.8    C24,2.8,2.8,24,2.8,50C2.8,76,24,97.2,50,97.2S97.2,76,97.2,50C97.2,24,76,2.8,50,2.8z"></path></g><g><path d="M39.9,70.6c-0.2,0-0.5-0.1-0.7-0.2c-0.4-0.2-0.7-0.7-0.7-1.2V30.8c0-0.5,0.3-1,0.7-1.2    c0.4-0.2,1-0.2,1.4,0l30.6,19.2c0.4,0.3,0.6,0.7,0.6,1.2c0,0.5-0.2,0.9-0.6,1.2L40.6,70.4C40.4,70.5,40.1,70.6,39.9,70.6z     M41.3,33.3v33.4L67.8,50L41.3,33.3z"></path></g></g></svg>