<?xml version="1.0" encoding="utf-8"?>
<!-- Generator: Adobe Illustrator 24.1.2, SVG Export Plug-In . SVG Version: 6.00 Build 0)  -->
<svg version="1.1" id="Layer_1" xmlns="http://www.w3.org/2000/svg" xmlns:xlink="http://www.w3.org/1999/xlink" x="0px" y="0px"
	 viewBox="0 0 100 100" style="enable-background:new 0 0 100 100;" xml:space="preserve">
<style type="text/css">
	.st0{fill:#94C9A9;}
</style>
<g>
	<path class="st0" d="M50,100C22.4,100,0,77.6,0,50S22.4,0,50,0s50,22.4,50,50S77.6,100,50,100z M50,2.8C24,2.8,2.8,24,2.8,50
		S24,97.2,50,97.2S97.2,76,97.2,50S76,2.8,50,2.8z"/>
</g>
<g>
	<path class="st0" d="M50,77.4c-0.8,0-1.4-0.6-1.4-1.4s0.6-1.4,1.4-1.4c13.6,0,24.7-11.1,24.7-24.7S63.6,25.3,50,25.3
		S25.3,36.4,25.3,50c0,0.8-0.6,1.4-1.4,1.4s-1.4-0.6-1.4-1.4c0-15.1,12.3-27.4,27.4-27.4S77.3,34.9,77.3,50S65.1,77.4,50,77.4z"/>
</g>
<g>
	<path class="st0" d="M24,61l-8.8-8.8c-0.5-0.5-0.5-1.4,0-2c0.5-0.5,1.4-0.5,2,0L24,57l6.9-6.9c0.5-0.5,1.4-0.5,2,0
		c0.5,0.5,0.5,1.4,0,2L24,61z"/>
</g>
</svg>
