<svg height='100px' width='100px'  fill="#000000" xmlns="http://www.w3.org/2000/svg" xmlns:xlink="http://www.w3.org/1999/xlink" version="1.1" x="0px" y="0px" viewBox="0 0 100 100" style="enable-background:new 0 0 100 100;" xml:space="preserve"><g><g><path d="M50,100C22.4,100,0,77.6,0,50S22.4,0,50,0c27.6,0,50,22.4,50,50S77.6,100,50,100z M50,2.8    C24,2.8,2.8,24,2.8,50S24,97.2,50,97.2C76,97.2,97.2,76,97.2,50S76,2.8,50,2.8z"></path></g><g><g><path d="M53.6,67.2c-0.2,0-0.5-0.1-0.7-0.2c-0.4-0.2-0.7-0.7-0.7-1.2V34.2c0-0.5,0.3-1,0.7-1.2     c0.4-0.2,1-0.2,1.4,0l25.1,15.8c0.4,0.3,0.6,0.7,0.6,1.2s-0.2,0.9-0.6,1.2L54.4,66.9C54.1,67.1,53.9,67.2,53.6,67.2z M55,36.7     v26.5L76.2,50L55,36.7z"></path></g><g><path d="M28.5,67.2c-0.2,0-0.5-0.1-0.7-0.2c-0.4-0.2-0.7-0.7-0.7-1.2V34.2c0-0.5,0.3-1,0.7-1.2     c0.4-0.2,1-0.2,1.4,0l25.1,15.8c0.4,0.3,0.6,0.7,0.6,1.2s-0.2,0.9-0.6,1.2L29.2,66.9C29,67.1,28.8,67.2,28.5,67.2z M29.9,36.7     v26.5L51,50L29.9,36.7z"></path></g></g></g></svg>