<svg height='100px' width='100px'  fill="#000000" xmlns="http://www.w3.org/2000/svg" xmlns:xlink="http://www.w3.org/1999/xlink" version="1.1" x="0px" y="0px" viewBox="0 0 100 100" style="enable-background:new 0 0 100 100;" xml:space="preserve"><g><g><path d="M50,100C22.4,100,0,77.6,0,50S22.4,0,50,0s50,22.4,50,50S77.6,100,50,100z M50,2.8C24,2.8,2.8,24,2.8,50    S24,97.2,50,97.2S97.2,76,97.2,50S76,2.8,50,2.8z"></path></g><g><g><path d="M46.4,67.2c-0.3,0-0.5-0.1-0.7-0.2L20.5,51.2c-0.4-0.3-0.6-0.7-0.6-1.2s0.2-0.9,0.6-1.2l25.1-15.8     c0.4-0.3,1-0.3,1.4,0c0.4,0.2,0.7,0.7,0.7,1.2v31.5c0,0.5-0.3,1-0.7,1.2C46.8,67.1,46.6,67.2,46.4,67.2z M23.8,50L45,63.3V36.7     L23.8,50z"></path></g><g><path d="M71.5,67.2c-0.3,0-0.5-0.1-0.7-0.2L45.6,51.2C45.2,50.9,45,50.5,45,50s0.2-0.9,0.6-1.2l25.1-15.8     c0.4-0.3,1-0.3,1.4,0c0.4,0.2,0.7,0.7,0.7,1.2v31.5c0,0.5-0.3,1-0.7,1.2C72,67.1,71.7,67.2,71.5,67.2z M49,50l21.1,13.3V36.7     L49,50z"></path></g></g></g></svg>